<svg width="15" height="15" viewBox="0 0 15 15" fill="none" xmlns="http://www.w3.org/2000/svg">
<path fill-rule="evenodd" clip-rule="evenodd" d="M10.0092 13.8334H4.44398C2.39974 13.8334 0.831475 13.095 1.27694 10.1232L1.79562 6.09575C2.07022 4.61292 3.01607 4.04541 3.84597 4.04541H10.6316C11.4737 4.04541 12.3647 4.65563 12.682 6.09575L13.2007 10.1232C13.579 12.7594 12.0534 13.8334 10.0092 13.8334Z" stroke="white" stroke-width="1.5" stroke-linecap="round" stroke-linejoin="round"/>
<path d="M10.1007 3.89882C10.1007 2.30811 8.81117 1.01858 7.22045 1.01858V1.01858C6.45445 1.01533 5.71871 1.31735 5.17592 1.85786C4.63312 2.39836 4.328 3.13282 4.328 3.89882H4.328" stroke="white" stroke-width="1.5" stroke-linecap="round" stroke-linejoin="round"/>
<path d="M9.19762 6.9013H9.16711" stroke="white" stroke-width="1.5" stroke-linecap="round" stroke-linejoin="round"/>
<path d="M5.31048 6.9013H5.27997" stroke="white" stroke-width="1.5" stroke-linecap="round" stroke-linejoin="round"/>
</svg>
