<svg width="15" height="16" viewBox="0 0 15 16" fill="none" xmlns="http://www.w3.org/2000/svg">
<path fill-rule="evenodd" clip-rule="evenodd" d="M10.0092 14.3334H4.44397C2.39973 14.3334 0.831464 13.595 1.27693 10.6232L1.79561 6.59575C2.07021 5.11292 3.01606 4.54541 3.84596 4.54541H10.6316C11.4737 4.54541 12.3646 5.15563 12.682 6.59575L13.2006 10.6232C13.579 13.2594 12.0534 14.3334 10.0092 14.3334Z" stroke="white" stroke-width="1.5" stroke-linecap="round" stroke-linejoin="round"/>
<path d="M10.1007 4.39882C10.1007 2.80811 8.81117 1.51858 7.22046 1.51858V1.51858C6.45446 1.51533 5.71872 1.81735 5.17592 2.35786C4.63313 2.89836 4.328 3.63282 4.32801 4.39882H4.32801" stroke="white" stroke-width="1.5" stroke-linecap="round" stroke-linejoin="round"/>
<path d="M9.1976 7.4013H9.16709" stroke="white" stroke-width="1.5" stroke-linecap="round" stroke-linejoin="round"/>
<path d="M5.31046 7.4013H5.27994" stroke="white" stroke-width="1.5" stroke-linecap="round" stroke-linejoin="round"/>
</svg>
