<svg width="22" height="22" viewBox="0 0 22 22" fill="none" xmlns="http://www.w3.org/2000/svg">
<path fill-rule="evenodd" clip-rule="evenodd" d="M11.0012 0.333496C8.10424 0.333496 7.74068 0.346163 6.60289 0.397941C5.46733 0.449942 4.69221 0.629721 4.01398 0.893502C3.31242 1.16595 2.7173 1.5304 2.1244 2.12351C1.53106 2.71641 1.16662 3.31153 0.89328 4.01287C0.628832 4.69132 0.448831 5.46666 0.397719 6.60178C0.34683 7.73957 0.333496 8.10335 0.333496 11.0003C0.333496 13.8972 0.346385 14.2596 0.397941 15.3974C0.450164 16.533 0.629944 17.3081 0.893502 17.9863C1.16617 18.6879 1.53062 19.283 2.12374 19.8759C2.71641 20.4693 3.31153 20.8346 4.01265 21.107C4.69132 21.3708 5.46666 21.5506 6.60201 21.6026C7.73979 21.6544 8.10313 21.667 10.9998 21.667C13.897 21.667 14.2594 21.6544 15.3972 21.6026C16.5328 21.5506 17.3088 21.3708 17.9875 21.107C18.6888 20.8346 19.283 20.4693 19.8757 19.8759C20.469 19.283 20.8335 18.6879 21.1068 17.9866C21.369 17.3081 21.5491 16.5328 21.6024 15.3977C21.6535 14.2599 21.6668 13.8972 21.6668 11.0003C21.6668 8.10335 21.6535 7.73979 21.6024 6.60201C21.5491 5.46644 21.369 4.69132 21.1068 4.01309C20.8335 3.31153 20.469 2.71641 19.8757 2.12351C19.2824 1.53018 18.689 1.16573 17.9868 0.893502C17.3068 0.629721 16.5312 0.449942 15.3957 0.397941C14.2579 0.346163 13.8956 0.333496 10.9978 0.333496H11.0012ZM10.0442 2.25571C10.3282 2.25526 10.6451 2.25571 11.0011 2.25571C13.8491 2.25571 14.1867 2.26593 15.3114 2.31704C16.3514 2.3646 16.9158 2.53838 17.2918 2.68438C17.7896 2.87771 18.1445 3.10883 18.5176 3.48217C18.891 3.8555 19.1221 4.21106 19.3159 4.70885C19.4619 5.0844 19.6359 5.64885 19.6832 6.68887C19.7343 7.81332 19.7454 8.1511 19.7454 10.9978C19.7454 13.8445 19.7343 14.1823 19.6832 15.3067C19.6356 16.3467 19.4619 16.9112 19.3159 17.2868C19.1225 17.7845 18.891 18.139 18.5176 18.5121C18.1443 18.8854 17.7899 19.1166 17.2918 19.3099C16.9163 19.4566 16.3514 19.6299 15.3114 19.6774C14.1869 19.7286 13.8491 19.7397 11.0011 19.7397C8.15286 19.7397 7.81531 19.7286 6.69085 19.6774C5.65084 19.6294 5.08639 19.4557 4.71016 19.3097C4.21238 19.1163 3.85682 18.8852 3.48348 18.5119C3.11015 18.1385 2.87903 17.7839 2.68525 17.2859C2.53925 16.9103 2.36525 16.3459 2.31792 15.3058C2.2668 14.1814 2.25658 13.8436 2.25658 10.9951C2.25658 8.14666 2.2668 7.81066 2.31792 6.6862C2.36547 5.64619 2.53925 5.08174 2.68525 4.70573C2.87859 4.20795 3.11015 3.85239 3.48348 3.47905C3.85682 3.10572 4.21238 2.8746 4.71016 2.68082C5.08617 2.53416 5.65084 2.36082 6.69085 2.31304C7.67486 2.2686 8.0562 2.25526 10.0442 2.25304V2.25571ZM16.695 4.02684C15.9883 4.02684 15.4149 4.59952 15.4149 5.30641C15.4149 6.01309 15.9883 6.58642 16.695 6.58642C17.4016 6.58642 17.975 6.01309 17.975 5.30641C17.975 4.59974 17.4016 4.02684 16.695 4.02684ZM11.0012 5.52241C7.97604 5.52241 5.52335 7.9751 5.52335 11.0002C5.52335 14.0254 7.97604 16.477 11.0012 16.477C14.0263 16.477 16.4781 14.0254 16.4781 11.0002C16.4781 7.9751 14.0263 5.52241 11.0012 5.52241ZM11.0011 7.44465C12.9647 7.44465 14.5567 9.03645 14.5567 11.0002C14.5567 12.9638 12.9647 14.5558 11.0011 14.5558C9.03734 14.5558 7.44555 12.9638 7.44555 11.0002C7.44555 9.03645 9.03734 7.44465 11.0011 7.44465Z" fill="white"/>
</svg>
