<svg width="56" height="53" viewBox="0 0 56 53" fill="none" xmlns="http://www.w3.org/2000/svg">
<path d="M21.3885 3.86276C23.4538 3.86276 25.1305 5.54764 25.1305 7.62306V16.371H33.8029C35.8682 16.371 37.545 18.0559 37.545 20.1313V32.2714C37.545 34.3468 35.8682 36.0317 33.8029 36.0317H25.1305V44.7462C25.1305 46.8216 23.4538 48.5065 21.3885 48.5065H16.5582C20.489 50.9055 25.0972 52.2891 30.0275 52.2891C44.374 52.2891 56 40.6065 56 26.1902C56 11.7739 44.374 0.0913086 30.0275 0.0913086C25.0972 0.0913086 20.4779 1.47492 16.5582 3.87392H21.3885V3.86276Z" fill="#E93235"/>
<path d="M4.16594 18.9263H10.3509C12.5496 18.9263 14.3484 20.7339 14.3484 22.9432V29.1583C14.3484 31.3676 12.5496 33.1752 10.3509 33.1752H4.16594C1.96732 33.1752 0.168457 31.3676 0.168457 29.1583V22.9432C0.168457 20.7339 1.96732 18.9263 4.16594 18.9263Z" fill="#E93235"/>
</svg>
